<?xml version="1.0" standalone="no"?><!DOCTYPE svg PUBLIC "-//W3C//DTD SVG 1.1//EN" "http://www.w3.org/Graphics/SVG/1.1/DTD/svg11.dtd"><svg t="1577768693320" class="icon" viewBox="0 0 1024 1024" version="1.1" xmlns="http://www.w3.org/2000/svg" p-id="1127" width="32" height="32" xmlns:xlink="http://www.w3.org/1999/xlink"><defs><style type="text/css"></style></defs><path d="M512 898.781242c-103.31318 0-200.44284-40.231553-273.497201-113.285913-73.051865-73.051865-113.284666-170.182773-113.284665-273.495953s40.2328-200.44284 113.285913-273.495953S408.68682 125.21751 512 125.21751s200.44284 40.2328 273.495953 113.285913c73.054361 73.053113 113.285913 170.182773 113.285913 273.495953s-40.231553 200.44284-113.285913 273.495953c-73.051865 73.054361-170.182773 113.285913-273.495953 113.285913z m0-748.610063c-199.513316 0-361.828197 162.314882-361.828197 361.828197 0 199.512068 162.316129 361.828197 361.828197 361.828198s361.828197-162.316129 361.828197-361.828198-162.314882-361.828197-361.828197-361.828197z" fill="currentColor" p-id="1128"></path><path d="M775.16458349 522.96541982H248.83761026c-6.0565043 0-10.96596739-4.91055996-10.96596827-10.96596826 0-6.0565043 4.90946396-10.96596739 10.96596827-10.96596738h526.32697323c6.05540742 0 10.96596739 4.90946396 10.96596739 10.96596738s-4.91055996 10.96596739-10.96596739 10.96596826z" fill="currentColor" p-id="1129"></path><path d="M512 786.13000244c-6.0565043 0-10.96596739-4.91055996-10.96596739-10.96596738V248.83596494c0-6.0565043 4.90946396-10.96596739 10.96596739-10.96596738s10.96596739 4.90946396 10.96596739 10.96596738v526.32697324c-0.00109687 6.0565043-4.90946396 10.96706426-10.96596739 10.96706426z" fill="currentColor" p-id="1130"></path></svg>
